<svg width="114" height="34" viewBox="0 0 114 34" fill="none" xmlns="http://www.w3.org/2000/svg">
<path d="M2.42816 20.9219H5.06439V11.341L8.92037 20.9219H11.1631L15.0191 11.341V20.9219H17.6553V7.42596H14.3896L10.0417 17.5971L5.69394 7.42596H2.42816V20.9219ZM20.9269 9.59003H23.2877V7.42596H20.9269V9.59003ZM24.8615 9.59003H27.2223V7.42596H24.8615V9.59003ZM28.7175 11.0852H26.3567V16.9282C26.3567 18.2463 25.3927 19.1119 23.9565 19.1119C22.5204 19.1119 21.5564 18.2463 21.5564 16.9282V11.0852H19.1956V17.2036C19.1956 19.6038 20.9859 21.1973 23.6811 21.1973C24.6451 21.1973 25.7075 20.8038 26.3567 20.194V20.9219H28.7175V11.0852ZM30.1857 20.9219H32.5465V15.0986C32.5465 13.7805 33.5892 12.8952 35.163 12.8952H35.9696V11.0852C35.6942 10.9672 35.2811 10.8885 34.927 10.8885C34.022 10.8885 33.058 11.4393 32.5465 12.2459V11.0852H30.1857V20.9219ZM36.8914 9.59003H39.2522V7.42596H36.8914V9.59003ZM36.8914 20.9219H39.2522V11.0852H36.8914V20.9219ZM45.2009 21.1973C45.8501 21.1973 46.519 21.0793 46.8731 20.9219V19.23H45.1615C44.65 19.23 44.2959 18.8955 44.2959 18.4037V13.0525H46.7747V11.0852H44.2959V7.42596H41.9351V11.0852H40.3612V13.0525H41.9351V18.4037C41.9351 20.0759 43.2335 21.1973 45.2009 21.1973ZM48.0084 20.9219H56.4679V18.8365H51.2348L56.4679 12.6591V11.0852H48.0084V13.1706H53.2415L48.0084 19.348V20.9219ZM63.2116 10.8098C62.0115 10.8098 60.6934 11.3606 59.9458 12.1672V11.0852H57.585V24.5811H59.9458V19.8398C60.6934 20.6464 62.0115 21.1973 63.2116 21.1973C66.32 21.1973 68.4054 19.1119 68.4054 16.0035C68.4054 12.8952 66.32 10.8098 63.2116 10.8098ZM62.9755 12.8952C64.8248 12.8952 66.0446 14.1346 66.0446 16.0035C66.0446 17.8725 64.8248 19.1119 62.9755 19.1119C61.1656 19.1119 59.9458 17.8725 59.9458 16.0035C59.9458 14.1346 61.1656 12.8952 62.9755 12.8952ZM69.286 20.9219H71.6468V15.0789C71.6468 13.7608 72.6108 12.8952 74.0469 12.8952C75.4831 12.8952 76.4471 13.7608 76.4471 15.0789V20.9219H78.8079V14.8035C78.8079 12.4033 77.0176 10.8098 74.3224 10.8098C73.3584 10.8098 72.296 11.2032 71.6468 11.8131V7.42596H69.286V20.9219ZM85.0219 21.1973C88.2287 21.1973 90.3534 19.1119 90.3534 16.0035C90.3534 12.8952 88.2287 10.8098 85.0219 10.8098C81.8152 10.8098 79.6905 12.8952 79.6905 16.0035C79.6905 19.1119 81.8152 21.1973 85.0219 21.1973ZM85.0219 19.1119C83.2317 19.1119 82.0513 17.8725 82.0513 16.0035C82.0513 14.1346 83.2317 12.8952 85.0219 12.8952C86.8122 12.8952 87.9926 14.1346 87.9926 16.0035C87.9926 17.8725 86.8122 19.1119 85.0219 19.1119ZM91.2277 20.9219H93.5885V15.0789C93.5885 13.7608 94.5525 12.8952 95.9887 12.8952C97.4248 12.8952 98.3888 13.7608 98.3888 15.0789V20.9219H100.75V14.8035C100.75 12.4033 98.9593 10.8098 96.2641 10.8098C95.3001 10.8098 94.2377 11.2032 93.5885 11.8131V11.0852H91.2277V20.9219ZM106.964 21.1973C109.364 21.1973 111.41 19.7415 112.059 17.5774H109.659C109.206 18.5611 108.124 19.23 106.964 19.23C105.429 19.23 104.249 18.207 104.032 16.6528H112.098L112.295 16.456V16.0035C112.295 12.8952 110.17 10.8098 106.964 10.8098C103.757 10.8098 101.632 12.8952 101.632 16.0035C101.632 19.1119 103.757 21.1973 106.964 21.1973ZM104.19 14.6854C104.642 13.4657 105.646 12.7771 106.964 12.7771C108.282 12.7771 109.285 13.4657 109.738 14.6854H104.19Z" fill="black" fill-opacity="0.85"/>
<path d="M29.4991 27.625C22.284 27.625 14.6908 27.51 1 30.7431C8.99589 26.1411 29.6793 25.192 38.7826 25.715C47.8859 26.238 53 26.3334 72.6191 28.275C97.2882 30.7164 107.793 28.5679 112.704 26.7218C112.802 26.6841 112.9 26.6462 113 26.6083C112.904 26.646 112.805 26.6838 112.704 26.7218C106.411 29.1578 104.762 31.3003 88.5042 31.3003C68.4717 31.3003 52.5556 27.625 29.4991 27.625Z" fill="url(#paint0_angular_424_2366)" stroke="#F19B13" stroke-width="0.230098" stroke-linecap="round"/>
<defs>
<radialGradient id="paint0_angular_424_2366" cx="0" cy="0" r="1" gradientUnits="userSpaceOnUse" gradientTransform="translate(57.1438 27.3264) rotate(90) scale(31.2843 53.5744)">
<stop stop-color="#F19B13"/>
<stop offset="0.479167" stop-color="#F7CC4F"/>
<stop offset="1" stop-color="#F4B70B"/>
</radialGradient>
</defs>
</svg>
